<?xml version="1.0" standalone="no"?>
<!DOCTYPE svg PUBLIC "-//W3C//DTD SVG 20010904//EN"
 "http://www.w3.org/TR/2001/REC-SVG-20010904/DTD/svg10.dtd">
<svg version="1.0" xmlns="http://www.w3.org/2000/svg"
 width="1080.000000pt" height="1080.000000pt" viewBox="0 0 1080.000000 1080.000000"
 preserveAspectRatio="xMidYMid meet">
<metadata>
Created by potrace 1.14, written by Peter Selinger 2001-2017
</metadata>
<g transform="translate(0.000000,1080.000000) scale(0.100000,-0.100000)"
fill="#000000" stroke="none">
<path d="M6014 6062 c-6 -4 -18 -27 -26 -52 -9 -25 -24 -64 -34 -87 l-19 -43
-245 -2 -245 -3 -3 -62 c-2 -35 1 -64 5 -64 4 -1 19 -3 33 -5 14 -3 90 -6 170
-8 158 -3 190 -9 190 -35 0 -17 -94 -161 -146 -225 -47 -57 -218 -227 -245
-243 -51 -31 -54 -49 -13 -104 20 -28 42 -48 48 -46 6 2 28 10 49 18 20 7 37
17 37 22 0 5 6 4 14 -2 11 -9 15 -7 20 11 8 31 54 81 66 73 6 -3 10 3 10 14 0
12 11 25 28 34 15 7 26 19 24 25 -5 24 39 12 48 -14 6 -15 10 -174 10 -380 l0
-354 28 -2 c97 -5 96 -5 104 32 4 19 10 75 13 123 5 87 24 154 48 169 7 4 24
8 39 8 14 0 29 6 32 13 5 10 7 10 12 0 7 -15 70 -18 79 -4 3 5 17 6 33 2 15
-5 36 -5 47 -1 12 4 23 3 27 -4 5 -7 8 -6 8 4 0 13 1 13 10 0 9 -13 11 -13 20
0 6 9 10 10 10 3 0 -12 43 -11 165 2 22 2 52 -2 68 -8 29 -13 30 -16 30 -125
0 -85 -10 -91 -135 -92 -110 0 -112 -2 -85 -80 10 -30 18 -36 52 -42 22 -4 75
-7 117 -7 83 -1 124 13 168 60 l25 27 -2 433 c-2 466 -6 523 -38 525 -11 0
-170 1 -353 2 l-332 2 4 23 c17 90 27 107 67 107 18 0 29 5 29 14 0 8 6 16 14
19 8 3 156 6 330 7 238 0 320 -3 336 -12 16 -10 24 -10 40 0 11 6 37 12 59 12
22 0 41 5 43 13 5 14 0 96 -7 115 -3 9 -88 12 -379 12 -445 0 -428 -5 -390
111 10 29 13 54 8 58 -12 11 -108 21 -120 13z m391 -622 c-4 -6 19 -10 62 -10
37 0 73 -4 79 -8 11 -6 18 -67 15 -119 l-1 -23 -305 0 c-287 0 -305 1 -305 18
0 10 -4 22 -10 28 -6 6 -6 22 2 46 16 54 42 60 261 63 104 2 191 6 194 9 10
10 15 7 8 -4z m101 -290 l50 -11 3 -46 c1 -26 4 -49 6 -53 2 -3 0 -12 -5 -20
-8 -13 -57 -15 -304 -15 -162 0 -297 3 -301 6 -14 15 -13 56 3 89 15 31 24 36
72 46 72 14 410 17 476 4z"/>
<path d="M2797 6043 c-4 -3 -7 -68 -7 -144 0 -116 -2 -138 -16 -143 -32 -12
-240 -6 -259 8 -18 13 -18 39 0 133 4 23 4 24 -4 8 -7 -15 -9 -6 -8 35 l2 54
-53 9 c-62 10 -82 5 -82 -22 0 -44 -74 -262 -121 -356 -27 -55 -73 -131 -102
-169 -87 -114 -85 -110 -59 -145 12 -17 22 -34 22 -38 0 -5 8 -13 19 -20 15
-10 22 -8 39 7 11 10 23 16 26 13 7 -8 96 78 96 93 0 6 17 35 38 65 20 30 46
72 56 92 33 65 53 71 221 77 194 6 184 16 185 -177 0 -78 -3 -148 -6 -157 -5
-12 -40 -15 -237 -16 -127 0 -235 -4 -240 -9 -4 -4 -7 -32 -5 -61 l3 -54 73
-12 c39 -7 134 -13 210 -14 178 -2 181 -2 192 -20 8 -13 15 -356 8 -362 -2 -1
-156 -4 -343 -7 l-340 -6 0 -60 0 -60 75 -12 c99 -16 1328 -19 1344 -3 5 5 20
10 33 10 22 0 23 4 23 65 l0 65 -317 2 -318 3 -1 170 -2 170 35 23 c33 21 45
23 212 23 107 0 190 5 211 12 35 12 35 12 35 72 l0 60 -233 5 c-217 5 -235 6
-248 24 -18 26 -19 253 -1 276 37 48 50 50 280 50 124 0 216 4 213 9 -3 5 3
11 13 14 21 5 35 58 18 69 -6 4 -8 10 -5 14 4 4 3 15 -2 25 -9 17 -30 18 -260
21 -194 2 -253 6 -259 16 -4 7 -11 70 -14 139 -5 85 -11 129 -19 135 -16 9
-112 11 -121 1z"/>
<path d="M4457 6044 c-4 -4 -7 -69 -7 -145 0 -116 -2 -138 -16 -143 -20 -8
-212 -8 -252 0 -30 6 -30 7 -26 63 2 31 6 81 9 112 l7 57 -51 12 c-61 15 -91
7 -91 -24 0 -47 -63 -235 -115 -341 -47 -97 -87 -158 -166 -256 -25 -31 -21
-49 22 -99 26 -30 32 -33 49 -22 11 6 27 12 35 12 9 0 14 4 10 9 -3 5 0 13 6
17 8 4 9 3 5 -4 -4 -7 -1 -12 7 -12 16 0 30 27 21 41 -3 5 8 17 25 26 28 17
71 78 71 101 0 6 4 21 9 34 5 13 9 27 9 31 2 10 23 31 42 40 8 4 31 17 50 29
31 19 50 21 182 22 80 1 144 -2 142 -6 -2 -4 0 -9 6 -13 8 -5 16 -320 8 -327
-2 -1 -111 -5 -243 -8 l-240 -5 0 -60 0 -60 35 -3 c19 -1 42 -6 50 -9 8 -4 92
-7 185 -7 120 -1 177 -5 193 -14 22 -13 22 -15 20 -195 l-3 -182 -343 -3 -343
-2 3 -62 3 -63 40 -8 c22 -4 342 -10 711 -13 614 -5 674 -4 704 11 25 13 31
21 26 38 -3 12 -6 39 -6 60 l0 37 -305 0 c-304 0 -304 0 -316 22 -8 14 -12 71
-11 160 1 148 12 190 57 205 11 4 85 7 163 6 79 -1 174 4 210 11 l67 12 -4 55
c-1 30 -5 57 -8 62 -2 4 -106 7 -231 7 -129 0 -233 4 -242 10 -11 7 -12 10 -2
10 11 0 10 3 -1 14 -14 14 -15 60 -8 279 1 10 6 15 11 12 6 -3 10 1 10 10 0
14 23 16 215 14 153 -2 219 1 227 9 7 7 22 12 34 12 29 0 37 26 28 85 l-6 45
-243 0 c-208 0 -246 2 -259 16 -9 8 -16 18 -17 22 0 4 -6 63 -12 132 l-12 125
-60 3 c-34 2 -64 0 -68 -4z"/>
<path d="M7156 6013 c-3 -4 -6 -28 -6 -55 0 -45 2 -48 25 -48 27 0 32 -18 15
-50 -13 -23 0 -32 84 -54 33 -8 64 -22 68 -31 5 -8 15 -21 22 -28 11 -10 -10
-16 -106 -34 -66 -12 -122 -24 -125 -26 -2 -3 1 -26 8 -52 11 -42 14 -46 37
-42 14 3 39 1 56 -4 23 -7 32 -5 39 6 4 8 19 15 33 15 14 0 23 -4 19 -9 -3 -5
5 -8 17 -7 46 6 77 18 82 32 5 12 9 12 25 2 23 -14 42 -2 21 13 -12 8 -9 9 9
5 14 -3 31 0 38 5 7 6 27 14 46 18 38 9 57 -5 57 -43 0 -13 7 -26 15 -30 8 -3
15 -10 15 -15 0 -7 -67 -12 -177 -13 l-178 -3 0 -208 0 -209 40 -14 c24 -8 55
-12 77 -8 29 4 39 2 44 -10 5 -13 9 -14 20 -5 11 9 14 6 14 -20 l0 -31 -145 0
-145 0 0 -49 c0 -48 0 -48 38 -55 20 -3 77 -6 125 -6 69 0 89 -3 93 -15 4 -8
13 -15 21 -15 9 0 13 -8 11 -22 -3 -23 -5 -23 -193 -28 l-190 -5 0 -45 0 -45
48 -3 c26 -2 47 -8 47 -14 0 -7 19 -9 58 -5 59 6 206 -2 197 -11 -3 -3 0 -11
5 -18 12 -14 -54 -37 -211 -74 -52 -13 -98 -26 -102 -30 -4 -4 1 -28 12 -53
l20 -47 60 0 c33 0 63 5 66 10 3 6 15 10 26 10 10 0 19 4 19 8 0 9 26 13 85
13 29 0 34 3 21 8 -18 7 -18 8 -2 14 10 4 26 7 37 7 10 0 19 4 19 10 0 5 3 9
8 8 4 -1 36 13 71 30 36 18 72 32 82 32 10 0 21 10 25 22 15 48 33 56 147 60
59 2 100 0 90 -4 -15 -6 -15 -7 5 -7 18 -1 22 -7 22 -31 0 -21 5 -30 16 -30
18 0 115 -30 129 -40 6 -4 34 -13 63 -20 28 -6 52 -16 52 -22 0 -5 9 -7 19 -3
11 3 22 1 26 -5 3 -5 17 -10 31 -10 17 0 23 -4 18 -12 -4 -6 -3 -8 3 -5 6 4
34 -3 64 -14 91 -35 88 -35 104 5 30 70 30 70 -122 122 -39 14 -74 32 -77 40
-3 8 0 14 7 14 8 0 8 3 -2 9 -21 14 21 23 87 20 99 -5 160 0 164 14 3 6 3 31
0 55 l-4 42 -173 0 -174 0 4 32 c3 17 10 35 17 40 7 4 61 8 119 8 121 0 132 6
127 67 l-3 38 -127 3 c-137 3 -143 6 -112 51 14 19 23 22 53 17 41 -6 91 12
92 34 0 8 2 24 4 35 5 23 7 236 3 310 -1 28 -7 53 -13 57 -5 4 -141 8 -302 8
-331 0 -305 -8 -290 90 4 30 6 64 3 75 -3 11 -1 43 6 72 9 44 8 65 -8 133
l-19 81 -292 -1 c-160 -1 -294 -4 -297 -7z m440 -109 c16 -4 23 -16 28 -44 3
-21 3 -45 0 -54 -6 -17 -78 -41 -94 -31 -5 3 -11 1 -15 -5 -14 -22 -23 -9 -15
21 8 28 7 31 -22 44 -18 7 -32 21 -33 32 -1 16 5 18 42 16 32 -2 43 1 43 12 0
16 28 19 66 9z m-170 -41 c-10 -10 -19 5 -10 18 6 11 8 11 12 0 2 -7 1 -15 -2
-18z m289 -429 c20 -28 3 -34 -102 -34 -86 0 -93 1 -93 20 0 11 6 20 13 20 8
0 8 3 -2 9 -9 6 20 8 78 6 76 -2 94 -6 106 -21z m471 10 c19 -9 34 -23 34 -30
0 -11 -26 -14 -132 -14 -90 0 -128 3 -118 10 12 8 12 10 1 10 -11 0 -11 3 -1
15 10 13 39 17 148 23 19 1 49 -5 68 -14z m-461 -155 c-3 -4 5 -17 17 -28 l22
-21 -132 0 c-120 0 -132 2 -132 18 0 10 5 23 11 29 12 12 221 15 214 2z m454
-6 c61 -35 41 -43 -105 -43 l-136 0 29 30 c26 28 32 30 105 30 54 0 85 -5 107
-17z m-369 -163 c0 -5 7 -10 15 -10 8 0 15 5 15 10 0 6 35 10 86 10 l86 0 -6
-25 c-4 -17 -2 -25 6 -25 9 0 8 -3 -2 -10 -22 -14 -117 -12 -124 3 -5 10 -7
10 -12 0 -4 -9 -35 -13 -101 -13 -95 0 -96 0 -78 20 10 11 15 20 10 20 -4 0
-2 7 5 15 14 17 100 21 100 5z m-130 -34 c0 -3 -4 -8 -10 -11 -5 -3 -10 -1
-10 4 0 6 5 11 10 11 6 0 10 -2 10 -4z m331 -160 c25 -53 15 -56 -173 -56 -95
0 -180 5 -188 10 -9 6 -11 10 -3 10 7 0 10 7 7 15 -4 10 0 15 13 15 11 0 27 6
36 13 12 8 65 13 157 15 l140 2 11 -24z m-488 -183 c-7 -2 -21 -2 -30 0 -10 3
-4 5 12 5 17 0 24 -2 18 -5z"/>
<path d="M7638 5433 c7 -3 16 -2 19 1 4 3 -2 6 -13 5 -11 0 -14 -3 -6 -6z"/>
<path d="M7968 4923 c7 -3 16 -2 19 1 4 3 -2 6 -13 5 -11 0 -14 -3 -6 -6z"/>
<path d="M7870 6011 c-34 -6 -35 -8 -38 -53 l-3 -48 40 0 40 0 -11 -31 c-6
-17 -7 -34 -2 -38 17 -15 109 -45 128 -42 14 2 17 -2 13 -14 -4 -9 -3 -14 3
-10 15 9 30 -4 24 -20 -5 -11 -37 -21 -104 -30 -8 -1 -39 -6 -69 -10 l-53 -8
6 -40 c8 -50 21 -66 46 -60 11 3 27 -2 35 -11 9 -9 31 -16 48 -16 24 0 28 3
17 10 -13 8 -12 10 3 10 9 0 17 -5 17 -10 0 -7 6 -7 18 -2 9 5 23 7 30 5 6 -3
12 2 12 11 0 9 -8 16 -17 17 -15 0 -15 2 2 8 11 5 30 5 42 0 17 -6 21 -5 17 5
-6 17 53 28 60 12 3 -7 10 -4 19 7 11 13 29 17 73 17 42 0 55 -3 44 -10 -10
-6 -11 -10 -2 -10 6 0 12 -8 12 -19 0 -21 23 -45 33 -34 4 3 7 2 7 -3 0 -12
70 -5 87 8 6 5 11 17 11 26 0 9 3 76 6 147 5 93 3 146 -6 185 l-13 55 -270 1
c-149 1 -286 -1 -305 -5z m313 -113 c4 -10 8 -9 16 2 10 13 12 13 21 0 5 -8
10 -10 10 -4 0 6 16 8 43 5 41 -6 42 -7 48 -49 7 -51 -2 -60 -65 -68 -44 -6
-46 -6 -46 18 0 17 -8 29 -26 36 -20 10 -24 17 -18 35 6 21 6 21 -12 5 -14
-12 -24 -14 -34 -8 -13 8 -13 10 1 10 9 0 22 7 29 15 15 18 27 19 33 3z"/>
<path d="M7288 5593 c7 -3 16 -2 19 1 4 3 -2 6 -13 5 -11 0 -14 -3 -6 -6z"/>
<path d="M10580 4806 c0 -2 8 -10 18 -17 15 -13 16 -12 3 4 -13 16 -21 21 -21
13z"/>
<path d="M6518 4503 c6 -2 18 -2 25 0 6 3 1 5 -13 5 -14 0 -19 -2 -12 -5z"/>
</g>
</svg>
